<svg xmlns="http://www.w3.org/2000/svg" width="39.997" height="39.997" viewBox="0.001 0.01 39.997 39.997" enable-background="new 0.001 0.01 39.997 39.997"><g fill="#1AACDB"><polyline points="6.416,19.958 25.14,19.958 25.14,19.022 6.416,19.022"/><polyline points="14.842,31.193 14.842,27.449 13.905,27.449 13.905,31.193"/><polyline points="20.459,13.405 20.459,8.724 19.522,8.724 19.522,13.405"/><path d="M28.885,32.129h4.009c0.164,0.002,0.305-0.082,0.376-0.152c0.128-0.131,0.157-0.23,0.192-0.324 c0.086-0.275,0.101-0.539,0.104-0.697V9.43c-0.002-0.124-0.011-0.291-0.146-0.468c-0.066-0.085-0.164-0.155-0.26-0.19 c-0.096-0.037-0.186-0.047-0.267-0.047H7.122C6.965,8.722,6.764,8.771,6.614,8.922c-0.151,0.15-0.2,0.351-0.198,0.508v21.525 c0.002,0.145,0.025,0.322,0.075,0.525c0.027,0.102,0.057,0.203,0.117,0.316l0.145,0.188c0.071,0.066,0.204,0.146,0.369,0.145H25.14 v-0.936H7.122v0.385l0.259-0.287c-0.037-0.037-0.133-0.098-0.259-0.098v0.385l0.259-0.287l-0.163,0.18l0.211-0.123l-0.049-0.057 l-0.163,0.18l0.211-0.123l-0.016,0.008L7.43,31.35l0-0.002l-0.016,0.008L7.43,31.35c-0.008-0.016-0.039-0.113-0.054-0.203 c-0.017-0.088-0.025-0.188-0.024-0.191V9.43h-0.23l0.154,0.154L7.352,9.43h-0.23l0.154,0.154L7.122,9.43v0.23l0.154-0.076 L7.122,9.43v0.23h25.771V9.458l-0.073,0.187l0.073,0.016V9.458l-0.073,0.187l0.114-0.293l-0.286,0.131l0.172,0.162l0.114-0.293 l-0.286,0.131l0.198-0.09L32.63,9.427l0.018,0.055l0.198-0.09L32.63,9.427l0.057-0.009L32.63,9.422v0.005l0.057-0.009L32.63,9.422 V9.43v21.525c0.001,0.035-0.012,0.207-0.035,0.318l-0.018,0.07l-0.008,0.025l0.184,0.078l-0.145-0.135l-0.039,0.057l0.184,0.078 l-0.145-0.135l0.285,0.264v-0.383c-0.145-0.002-0.252,0.08-0.285,0.119l0.285,0.264v-0.383h-4.009V32.129z"/><polyline points="20.459,19.958 20.459,16.214 19.522,16.214 19.522,19.958"/><polyline points="28.885,19.958 33.565,19.958 33.565,19.022 28.885,19.022"/><polyline points="14.842,24.641 14.842,19.958 13.905,19.958 13.905,24.641"/><path d="M25.36,32.129c0.001-0.896,0.41-1.727,1.127-2.357c0.715-0.631,1.731-1.037,2.865-1.035v-1.047 c-1.332,0.002-2.545,0.471-3.443,1.258c-0.896,0.783-1.484,1.914-1.484,3.182H25.36z"/><polyline points="29.821,31.193 29.821,27.689 28.885,27.689 28.885,31.193"/></g></svg>