<svg xmlns="http://www.w3.org/2000/svg" width="40" height="40" viewBox="0 0 40 40"><polyline points="15.486,19.232 36.308,15.244 36.119,14.261 15.297,18.25"/><polyline points="4.152,12.77 15.14,19.173 15.644,18.309 4.656,11.906"/><polyline points="14.904,18.002 14.904,30.002 15.904,30.002 15.904,18.002"/><path d="M4.406,24.338v0.5c0.204-0.002,0.329-0.114,0.376-0.17c0.097-0.123,0.089-0.158,0.104-0.188l0.017-0.078l0.004-0.046 c0.001-0.049,0.002-0.158,0.002-0.316L4.904,12.638H4.755l0.117,0.1l0.033-0.1H4.755l0.117,0.1l-0.116-0.099l0.023,0.146 l0.093-0.047l-0.116-0.099l0.023,0.146l21.426-3.387l0.027-0.001l0.219,0.043l9.453,5.071v0.001v11.897h0.142l-0.112-0.094 l-0.029,0.094h0.142l-0.112-0.094l0.111,0.094L36.02,26.27l-0.086,0.045l0.111,0.094L36.02,26.27l-20.755,3.731l-0.024,0.001 l-0.119-0.016l-0.072-0.023L4.916,24.057l-0.182-0.105L4.68,23.92l-0.012-0.008l-0.068,0.115l0.07-0.114l-0.001-0.001l-0.068,0.115 l0.07-0.114l-0.235,0.384l0.245-0.378l-0.009-0.006l-0.235,0.384l0.245-0.378L4.41,24.333l0.287-0.401l-0.019-0.013L4.41,24.333 l0.287-0.401L4.406,24.338l0.324-0.381l-0.033-0.025L4.406,24.338l0.324-0.381L4.406,24.338l0.373-0.332L4.73,23.957L4.406,24.338 l0.373-0.332L4.406,24.338l0.429-0.258l-0.056-0.074L4.406,24.338l0.429-0.258L4.406,24.338h0.5 c-0.005-0.154-0.05-0.215-0.071-0.258L4.406,24.338h0.5H4.406v0.5V24.338h-0.5c0.005,0.155,0.05,0.217,0.071,0.258l0.086,0.107 l0.063,0.049l0.032,0.021c0.032,0.019,0.132,0.077,0.254,0.148l10.135,5.907c0.23,0.127,0.451,0.168,0.693,0.174l0.201-0.017 l20.756-3.731c0.215-0.041,0.383-0.154,0.504-0.298c0.119-0.145,0.201-0.329,0.203-0.548V14.511 c-0.002-0.203-0.063-0.365-0.148-0.51c-0.088-0.144-0.202-0.274-0.38-0.372l-9.452-5.071c-0.23-0.117-0.451-0.157-0.691-0.162 L26.049,8.41L4.623,11.797c-0.216,0.035-0.388,0.147-0.511,0.29c-0.123,0.145-0.206,0.332-0.207,0.55l0.004,11.401l0,0.208l0,0.06 l0,0.012l0.333,0.01l-0.333-0.02l0,0.01l0.333,0.01l-0.333-0.02l0.478,0.027l-0.476-0.053l-0.002,0.025l0.478,0.027l-0.476-0.053 l0.494,0.055L3.918,24.23l-0.009,0.053l0.494,0.055L3.918,24.23L4.406,24.338l-0.458-0.201l-0.03,0.094L4.406,24.338l-0.458-0.201 L4.406,24.338L4.03,24.01l-0.082,0.127L4.406,24.338L4.03,24.01L4.406,24.338v-0.5c-0.204,0.003-0.329,0.115-0.376,0.172 L4.406,24.338v-0.5h-0.5v0.5H4.406z"/><polyline points="26.904,17.002 26.904,9.002 25.904,9.002 25.904,17.002"/></svg>