<?xml version="1.0" encoding="UTF-8"?>
<svg width="40px" height="40px" viewBox="0 0 40 40" version="1.1" xmlns="http://www.w3.org/2000/svg" xmlns:xlink="http://www.w3.org/1999/xlink">
    <!-- Generator: Sketch 50 (54983) - http://www.bohemiancoding.com/sketch -->
    <title>icon-rotate</title>
    <desc>Created with Sketch.</desc>
    <defs></defs>
    <g id="icon-rotate" stroke="none" stroke-width="1" fill="none" fill-rule="evenodd">
        <g id="rotate" transform="translate(5.000000, 5.000000)" fill="#000000" fill-rule="nonzero">
            <path d="M12.0560318,26.9669936 C12.2514124,26.2242817 11.8170163,25.4612702 11.0857861,25.2628209 C8.08274918,24.4455354 5.6902141,22.4694568 4.24977863,19.9353432 C2.81049457,17.4032941 2.32281481,14.3113936 3.12779035,11.2599291 C3.93243782,8.2097256 5.87795939,5.77963878 8.37288695,4.31655326 C10.8657818,2.85466337 13.909871,2.35929784 16.9141494,3.17691656 C19.9171863,3.99420207 22.3096957,5.97028059 23.7501569,8.50439423 C25.1894409,11.0364433 25.6771464,14.1283438 24.8721709,17.1798083 C24.6767902,17.9225201 25.1111864,18.6855316 25.8424165,18.883981 C26.5736435,19.0824304 27.3248562,18.6412114 27.5202369,17.8984963 C28.5200592,14.1084361 27.9115302,10.2633506 26.1194449,7.11059677 C24.3285027,3.95989452 21.3544055,1.5031313 17.6217305,0.487298419 C13.8902776,-0.528227389 10.1046502,0.0898593565 7.00064881,1.91009168 C3.89866721,3.72916299 1.47989398,6.74997218 0.479769356,10.5412738 C-0.520052942,14.331334 0.0884509769,18.1764195 1.88053562,21.3291733 C3.67147785,24.4798756 6.64560071,26.9366388 10.37825,27.9524717 C11.1094384,28.1509276 11.8606511,27.7097087 12.0560318,26.9669936 Z" id="Shape"></path>
            <path d="M32.6766443,15.430402 C32.1783806,14.8546494 31.2832055,14.7717487 30.6772768,15.2451929 L26.2007428,18.7454094 L22.5176402,14.4924599 C22.0193766,13.9167073 21.1242014,13.8338066 20.5182727,14.3072508 C19.9123414,14.7806982 19.8250954,15.6312887 20.3233557,16.2070388 L24.8320692,21.4133337 C24.8550129,21.4449102 24.8794301,21.4758867 24.9055578,21.5060634 C25.4058739,22.0837909 26.3043899,22.166717 26.9123971,21.691322 L32.4817346,17.3301869 C33.0876586,16.8567427 33.1749046,16.0061521 32.6766443,15.430402 Z" id="Shape"></path>
        </g>
        <text id="90" font-family="HelveticaNeue, Helvetica Neue" font-size="10" font-weight="normal" fill="#000000">
            <tspan x="13" y="22">90</tspan>
        </text>
    </g>
</svg>